<svg width="20" height="20" viewBox="0 0 20 20" fill="none" xmlns="http://www.w3.org/2000/svg">
<path fill-rule="evenodd" clip-rule="evenodd" d="M4 3.5C4 2.39543 4.89543 1.5 6 1.5H14C15.1046 1.5 16 2.39543 16 3.5V4.5H4V3.5ZM2 8C2 6.89543 2.89543 6 4 6H16C17.1046 6 18 6.89543 18 8V9H2V8ZM0 12.5C0 11.3954 0.89543 10.5 2 10.5H18C19.1046 10.5 20 11.3954 20 12.5V15.5C20 17.7091 18.2091 19.5 16 19.5H4C1.79086 19.5 0 17.7091 0 15.5V12.5ZM7.25 13.5C7.25 13.0858 7.58579 12.75 8 12.75H12C12.4142 12.75 12.75 13.0858 12.75 13.5C12.75 13.9142 12.4142 14.25 12 14.25H8C7.58579 14.25 7.25 13.9142 7.25 13.5Z" fill="white"/>
</svg>
