<svg width="20" height="20" viewBox="0 0 20 20" fill="none" xmlns="http://www.w3.org/2000/svg">
<g clip-path="url(#clip0_8_44946)">
<path d="M10.6282 11.2135C13.7198 11.2135 16.235 8.69832 16.235 5.60676C16.235 2.5152 13.7198 0 10.6282 0C7.53664 0 5.02148 2.5152 5.02148 5.60676C5.02148 8.69832 7.53668 11.2135 10.6282 11.2135ZM10.0423 3.16277V3.09637C10.0423 2.77277 10.3046 2.51043 10.6282 2.51043C10.9518 2.51043 11.2142 2.77277 11.2142 3.09637V3.13801H11.2559C11.5795 3.13801 11.8418 3.40035 11.8418 3.72395C11.8418 4.04754 11.5795 4.30988 11.2559 4.30988H10.3144C10.1184 4.30988 9.95895 4.46934 9.95895 4.66539C9.95895 4.86141 10.1184 5.02086 10.3144 5.02086H10.9421C11.7843 5.02086 12.4695 5.70602 12.4695 6.54824C12.4695 7.2975 11.927 7.92203 11.2142 8.05082V8.11723C11.2142 8.44082 10.9519 8.70316 10.6283 8.70316C10.3047 8.70316 10.0423 8.44082 10.0423 8.11723V8.07559H10.0007C9.67707 8.07559 9.41473 7.81324 9.41473 7.48965C9.41473 7.16605 9.67707 6.90371 10.0007 6.90371H10.9421C11.1381 6.90371 11.2976 6.74426 11.2976 6.54824C11.2976 6.35219 11.1381 6.19273 10.9421 6.19273H10.3145C9.4723 6.19273 8.78715 5.50758 8.78715 4.66539C8.78715 3.91609 9.32961 3.29156 10.0423 3.16277Z" fill="white"/>
<path d="M18.4204 3.62056L19.6756 2.99295C19.965 2.84826 20.0823 2.4963 19.9376 2.20685C19.7929 1.9174 19.441 1.80009 19.1515 1.94478L17.8963 2.5724C17.6068 2.71709 17.4895 3.06904 17.6343 3.35849C17.7795 3.64904 18.132 3.76463 18.4204 3.62056Z" fill="white"/>
<path d="M19.6756 8.22078L18.4204 7.59317C18.1311 7.4486 17.779 7.56578 17.6343 7.85524C17.4895 8.14469 17.6068 8.49664 17.8963 8.64133L19.1515 9.26895C19.4406 9.4134 19.7927 9.29668 19.9376 9.00688C20.0823 8.71743 19.965 8.36547 19.6756 8.22078Z" fill="white"/>
<path d="M3.35918 2.57244L2.10395 1.94478C1.81445 1.80009 1.46258 1.9174 1.31785 2.20685C1.17313 2.4963 1.29043 2.84826 1.57988 2.99295L2.83512 3.62056C3.12344 3.76466 3.47594 3.64908 3.62121 3.35849C3.76594 3.06904 3.64863 2.71713 3.35918 2.57244Z" fill="white"/>
<path d="M2.83512 7.59317L1.57988 8.22078C1.29043 8.36547 1.17313 8.71743 1.31785 9.00688C1.46278 9.29668 1.81488 9.4134 2.10395 9.26895L3.35918 8.64133C3.64863 8.49664 3.76594 8.14469 3.62121 7.85524C3.47649 7.56578 3.12442 7.4486 2.83512 7.59317Z" fill="white"/>
<path d="M15.8539 12.8615L13.02 15.6955C12.6718 16.0433 12.2096 16.2346 11.7184 16.2346H9.59191C9.27641 16.2346 9.00492 15.9922 8.99008 15.677C8.97422 15.3405 9.24234 15.0628 9.57535 15.0628H11.4729C12.1661 15.0628 12.728 14.5008 12.728 13.8076C12.728 13.1144 12.1661 12.5524 11.4729 12.5524H7.65129C5.87375 12.5524 5.31055 14.0497 5.21719 14.4352H4.31055V18.7451H12.3904C13.119 18.7451 13.8042 18.4612 14.3198 17.9458L18.5738 13.6916C18.7965 13.469 18.81 13.0985 18.571 12.8602C17.792 12.0831 16.5829 12.1325 15.8539 12.8615Z" fill="white"/>
<path d="M2.55211 13.1797H0.585938C0.262344 13.1797 0 13.442 0 13.7656V19.4141C0 19.7377 0.262344 20 0.585938 20H2.55207C2.87566 20 3.13801 19.7377 3.13801 19.4141V13.7656C3.13805 13.442 2.8757 13.1797 2.55211 13.1797Z" fill="white"/>
</g>
<defs>
<clipPath id="clip0_8_44946">
<rect width="20" height="20" fill="white"/>
</clipPath>
</defs>
</svg>
