<svg width="36" height="36" viewBox="0 0 36 36" fill="none" xmlns="http://www.w3.org/2000/svg">
<rect width="36" height="36" rx="6" fill="white"/>
<path d="M36 5.14286C36 2.30625 33.6937 0 30.8571 0H5.14286C2.30625 0 0 2.30625 0 5.14286V30.8571C0 33.6937 2.30625 36 5.14286 36H30.8571C33.6937 36 36 33.6937 36 30.8571V5.14286ZM21.3589 30.1902C21.3589 30.0455 21.3589 29.708 21.367 29.258C21.375 28.342 21.375 26.9437 21.375 25.7464C21.375 24.4929 20.9571 23.6973 20.467 23.2795C23.4402 22.95 26.5741 22.5402 26.5741 17.4054C26.5741 15.9429 26.0518 15.2116 25.2 14.2714C25.3366 13.9259 25.7946 12.5036 25.0634 10.6554C23.9464 10.3098 21.3911 12.0938 21.3911 12.0938C20.3304 11.7964 19.1812 11.6437 18.0482 11.6437C16.9152 11.6437 15.7661 11.7964 14.7054 12.0938C14.7054 12.0938 12.15 10.3098 11.033 10.6554C10.3018 12.4955 10.7518 13.9179 10.8964 14.2714C10.0446 15.2116 9.64286 15.9429 9.64286 17.4054C9.64286 22.5161 12.6402 22.95 15.6134 23.2795C15.2277 23.625 14.8821 24.2196 14.7616 25.0714C13.9982 25.417 12.0455 26.0116 10.8804 23.9545C10.1491 22.6848 8.83125 22.5804 8.83125 22.5804C7.52946 22.5643 8.74286 23.4 8.74286 23.4C9.61071 23.8018 10.2214 25.3446 10.2214 25.3446C11.0009 27.7312 14.7295 26.9277 14.7295 26.9277C14.7295 27.6509 14.7375 28.6714 14.7375 29.3866C14.7375 29.7723 14.7455 30.0777 14.7455 30.1902C14.7455 30.5357 14.5045 30.9536 13.8214 30.833C8.51786 29.0571 4.80536 24.0107 4.80536 18.1125C4.80536 10.7357 10.4464 5.13482 17.8232 5.13482C25.2 5.13482 31.1786 10.7357 31.1786 18.1125C31.1866 24.0107 27.5866 29.0652 22.283 30.833C21.608 30.9536 21.3589 30.5357 21.3589 30.1902ZM14.0866 25.7866C14.0705 25.6661 14.175 25.5616 14.3277 25.5295C14.4804 25.5134 14.625 25.5777 14.6411 25.6821C14.6652 25.7866 14.5607 25.8911 14.4 25.9232C14.2473 25.9554 14.1027 25.8911 14.0866 25.7866ZM13.3554 26.0438C13.1786 26.0598 13.058 25.9714 13.058 25.8509C13.058 25.7464 13.1786 25.658 13.3393 25.658C13.492 25.642 13.6366 25.7304 13.6366 25.8509C13.6366 25.9554 13.5161 26.0438 13.3554 26.0438ZM12.2062 25.867C12.0536 25.8348 11.9491 25.7143 11.9813 25.6098C12.0134 25.5054 12.1741 25.4571 12.3107 25.4893C12.4714 25.5375 12.5759 25.658 12.5357 25.7625C12.5036 25.867 12.3429 25.9152 12.2062 25.867ZM11.2018 25.2804C11.0812 25.1759 11.0491 25.0232 11.1295 24.9509C11.2018 24.8625 11.3545 24.8786 11.475 24.9991C11.5795 25.1036 11.6196 25.2643 11.5473 25.3286C11.475 25.417 11.3223 25.4009 11.2018 25.2804ZM10.5187 24.4768C10.4304 24.3563 10.4304 24.2196 10.5187 24.1634C10.6071 24.0911 10.7438 24.1473 10.8161 24.2679C10.9045 24.3884 10.9045 24.533 10.8161 24.5973C10.7438 24.6455 10.6071 24.5973 10.5187 24.4768ZM10.0125 23.7696C9.92411 23.6652 9.90804 23.5446 9.98036 23.4884C10.0527 23.4161 10.1732 23.4562 10.2616 23.5366C10.35 23.6411 10.3661 23.7616 10.2938 23.8179C10.2214 23.8902 10.1009 23.85 10.0125 23.7696ZM9.53036 23.2554C9.42589 23.2071 9.37768 23.1187 9.40982 23.0464C9.44196 22.9982 9.53036 22.9741 9.63482 23.0143C9.73929 23.0705 9.7875 23.1589 9.75536 23.2232C9.72321 23.2955 9.61875 23.3116 9.53036 23.2554Z" fill="#337AB7"/>
</svg>
