<svg width="20" height="20" viewBox="0 0 20 20" fill="none" xmlns="http://www.w3.org/2000/svg">
<path d="M19.9935 9.98242C19.9935 10.6152 19.4727 11.1109 18.8824 11.1109H17.7713L17.7956 16.743C17.7956 16.8379 17.7886 16.9328 17.7782 17.0277V17.5973C17.7782 18.3742 17.1567 19.0035 16.3893 19.0035H15.8338C15.7956 19.0035 15.7574 19.0035 15.7192 19C15.6706 19.0035 15.622 19.0035 15.5734 19.0035L14.4449 19H13.6115C12.8442 19 12.2227 18.3707 12.2227 17.5938V16.75V14.5C12.2227 13.8777 11.7261 13.375 11.1115 13.375H8.88932C8.27474 13.375 7.77821 13.8777 7.77821 14.5V16.75V17.5938C7.77821 18.3707 7.15668 19 6.38932 19H5.55599H4.44835C4.39627 19 4.34418 18.9965 4.2921 18.993C4.25043 18.9965 4.20877 19 4.1671 19H3.61155C2.84418 19 2.22266 18.3707 2.22266 17.5938V13.6562C2.22266 13.6246 2.22266 13.5895 2.22613 13.5578V11.1074H1.11502C0.490017 11.1074 0.00390625 10.6152 0.00390625 9.97891C0.00390625 9.6625 0.108073 9.38125 0.351128 9.13516L9.25043 1.28125C9.49349 1.03516 9.77127 1 10.0143 1C10.2574 1 10.5352 1.07031 10.7435 1.24609L19.6115 9.13867C19.8893 9.38477 20.0282 9.66602 19.9935 9.98242Z" fill="white"/>
</svg>
