<svg width="20" height="20" viewBox="0 0 20 20" fill="none" xmlns="http://www.w3.org/2000/svg">
<g clip-path="url(#clip0_8_44914)">
<path d="M9.37836 0.164062C9.76117 -0.0546875 10.2338 -0.0546875 10.6205 0.164062L17.3315 3.99609L17.4995 4.0625V4.09766L19.3705 5.16797C19.8627 5.44922 20.1049 6.02734 19.9604 6.57422C19.8159 7.12109 19.3198 7.50391 18.7534 7.50391L1.24945 7.5C0.683049 7.5 0.186955 7.11719 0.0424237 6.57031C-0.102108 6.02344 0.14008 5.44531 0.632268 5.16406L2.49945 4.09766V4.0625L2.67133 4L9.37836 0.164062ZM2.49945 8.75H4.99945V16.25H6.56196V8.75H9.06196V16.25H10.937V8.75H13.437V16.25H14.9995V8.75H17.4995V16.418C17.5229 16.4297 17.5463 16.4453 17.5698 16.4609L19.4448 17.7109C19.9018 18.0156 20.1088 18.5859 19.9487 19.1133C19.7885 19.6406 19.3002 20 18.7495 20H1.24945C0.698674 20 0.214299 19.6406 0.0541425 19.1133C-0.106014 18.5859 0.0971112 18.0156 0.558049 17.7109L2.43305 16.4609C2.45649 16.4453 2.47992 16.4336 2.50336 16.418L2.49945 8.75Z" fill="white"/>
</g>
<defs>
<clipPath id="clip0_8_44914">
<rect width="20" height="20" fill="white"/>
</clipPath>
</defs>
</svg>
