<svg width="36" height="36" viewBox="0 0 36 36" fill="none" xmlns="http://www.w3.org/2000/svg">
<rect width="36" height="36" rx="6" fill="white"/>
<path fill-rule="evenodd" clip-rule="evenodd" d="M6 0C2.68629 0 0 2.68629 0 6V30C0 33.3137 2.68629 36 6 36H30C33.3137 36 36 33.3137 36 30V6C36 2.68629 33.3137 0 30 0H6ZM5.54464 13.6768V30.8571H10.8804H10.8884V13.6768H5.54464ZM5.11875 8.23661C5.11875 9.94018 6.50089 11.3304 8.2125 11.3304C9.92411 11.3304 11.3062 9.94821 11.3062 8.23661C11.3062 6.53304 9.91607 5.14286 8.2125 5.14286C6.50089 5.14286 5.11875 6.53304 5.11875 8.23661ZM25.5455 30.8571H30.8812V21.4393C30.8812 16.8107 29.8768 13.2509 24.4768 13.2509C21.8813 13.2509 20.1375 14.6732 19.4223 16.0232H19.35V13.6768H14.2313V30.8571H19.567V22.3554C19.567 20.1134 19.9929 17.9438 22.7732 17.9438C25.5054 17.9438 25.5455 20.5071 25.5455 22.5V30.8571Z" fill="#337AB7"/>
</svg>
