<?xml version="1.0" encoding="UTF-8"?>
<svg width="640px" height="640px" viewBox="0 0 640 640" version="1.1" xmlns="http://www.w3.org/2000/svg" xmlns:xlink="http://www.w3.org/1999/xlink">
    <title>Graphic</title>
    <g id="Graphic" stroke="none" fill="none">
        <rect id="Rectangle" fill="#3371B7" fill-rule="evenodd" x="0" y="0" width="640" height="640" rx="90"></rect>
        <path d="M529,243.1 C529,145.9 465.3,117.4 465.3,117.4 C402.8,88.7 236.7,89 174.8,117.4 C174.8,117.4 111.1,145.9 111.1,243.1 C111.1,358.8 104.5,502.5 216.7,532.2 C257.2,542.9 292,545.2 320,543.6 C370.8,540.8 399.3,525.5 399.3,525.5 L397.6,488.6 C397.6,488.6 361.3,500 320.5,498.7 C280.1,497.3 237.5,494.3 230.9,444.7 C230.3,440.1 230,435.4 230,430.8 C315.6,451.7 388.7,439.9 408.7,437.5 C464.8,430.8 513.7,396.2 519.9,364.6 C529.7,314.8 528.9,243.1 528.9,243.1 L529,243.1 Z M453.9,368.3 L407.3,368.3 L407.3,254.1 C407.3,204.4 343.3,202.5 343.3,261 L343.3,323.5 L297,323.5 L297,261 C297,202.5 233,204.4 233,254.1 L233,368.3 L186.3,368.3 C186.3,246.2 181.1,220.4 204.7,193.3 C230.6,164.4 284.5,162.5 308.5,199.4 L320.1,218.9 L331.7,199.4 C355.8,162.3 409.8,164.6 435.5,193.3 C459.2,220.6 453.9,246.3 453.9,368.3 L453.9,368.3 Z" id="Shape" fill="#FFFFFF" fill-rule="nonzero"></path>
    </g>
</svg>