<svg width="34" height="34" viewBox="0 0 34 34" fill="none" xmlns="http://www.w3.org/2000/svg">
<path d="M2 6.375C2 5.19961 2.95759 4.25 4.14286 4.25H29.8571C31.0424 4.25 32 5.19961 32 6.375C32 7.55039 31.0424 8.5 29.8571 8.5H4.14286C2.95759 8.5 2 7.55039 2 6.375ZM2 17C2 15.8246 2.95759 14.875 4.14286 14.875H29.8571C31.0424 14.875 32 15.8246 32 17C32 18.1754 31.0424 19.125 29.8571 19.125H4.14286C2.95759 19.125 2 18.1754 2 17ZM32 27.625C32 28.8004 31.0424 29.75 29.8571 29.75H4.14286C2.95759 29.75 2 28.8004 2 27.625C2 26.4496 2.95759 25.5 4.14286 25.5H29.8571C31.0424 25.5 32 26.4496 32 27.625Z" fill="white"/>
</svg>
