<svg width="20" height="20" viewBox="0 0 20 20" fill="none" xmlns="http://www.w3.org/2000/svg">
<g clip-path="url(#clip0_8_44879)">
<path d="M10 1.875C5.51172 1.875 1.875 5.51172 1.875 10V11.5625C1.875 12.082 1.45703 12.5 0.9375 12.5C0.417969 12.5 0 12.082 0 11.5625V10C0 4.47656 4.47656 0 10 0C15.5234 0 20 4.47656 20 10V15.6289C20 17.5273 18.4609 19.0664 16.5586 19.0664L12.25 19.0625C11.9258 19.6211 11.3203 20 10.625 20H9.375C8.33984 20 7.5 19.1602 7.5 18.125C7.5 17.0898 8.33984 16.25 9.375 16.25H10.625C11.3203 16.25 11.9258 16.6289 12.25 17.1875L16.5625 17.1914C17.4258 17.1914 18.125 16.4922 18.125 15.6289V10C18.125 5.51172 14.4883 1.875 10 1.875ZM5.625 8.125H6.25C6.94141 8.125 7.5 8.68359 7.5 9.375V13.75C7.5 14.4414 6.94141 15 6.25 15H5.625C4.24609 15 3.125 13.8789 3.125 12.5V10.625C3.125 9.24609 4.24609 8.125 5.625 8.125ZM14.375 8.125C15.7539 8.125 16.875 9.24609 16.875 10.625V12.5C16.875 13.8789 15.7539 15 14.375 15H13.75C13.0586 15 12.5 14.4414 12.5 13.75V9.375C12.5 8.68359 13.0586 8.125 13.75 8.125H14.375Z" fill="white"/>
</g>
<defs>
<clipPath id="clip0_8_44879">
<rect width="20" height="20" fill="white"/>
</clipPath>
</defs>
</svg>
